<svg viewBox="0 0 200 200" xmlns="http://www.w3.org/2000/svg">
  <path fill="#BAE6FF" d="M44.3,-76.7C58.5,-68.5,71.8,-58.8,80.3,-45.8C88.7,-32.8,92.3,-16.4,91.6,-0.4C90.9,15.6,86,31.2,77.4,44C68.8,56.8,56.6,66.8,43.1,74.9C29.6,83.1,14.8,89.3,-0.7,90.6C-16.3,91.9,-32.5,88.2,-45.4,79.7C-58.2,71.2,-67.7,57.9,-75.2,43.8C-82.8,29.7,-88.5,14.8,-89.9,-0.9C-91.4,-16.6,-88.8,-33.1,-80.9,-46.7C-73.1,-60.3,-60,-70.9,-45.7,-78.9C-31.3,-87,-15.7,-92.6,-0.3,-92C15,-91.5,30.1,-84.8,44.3,-76.7Z" transform="translate(100 100)" />
</svg>
